Patient4_TMGait_0pt7_02_left_15_EMG.mot
version=1
nRows=27
nColumns=33
inDegrees=no
endheader
time	1LAddLong	2LGlutMax	3LGlutMed	4LIliopsoas	5LSemiMemb	6LBicFemLong	7LRecFem	8LVastMed	9LVastLat	10LGasMed	11LTibAnt	12lTibPost	13LPeroneusLong	14LSol	15LExtDigLong	16LFlexDigLong	17RAddLong	18RGlutMax	19RGlutMed	20RIliopsoas	21RSemiMemb	22RBicFemLong	23RRecFem	24RVastMed	25RVastLat	26RGasMed	27RTibAnt	28RTibPost	29RPeroneusLong	30RSol	31RExtDigLong	32RFlexDigLong
17.675	0.005646	-0.25467	-0.18799	0.006409	0.004425	-0.021667	-0.35584	0.010986	-0.012207	0.25299	-0.000305	-0.096283	0.089417	0.345	0.001831	-0.018311	0.00061	-0.2417	0.96008	0.046234	0.17029	-0.3006	0.027466	-0.20813	-0.020447	0.003204	-0.099182	0.012512	0.007019	-0.036621	-0.002289	-0.005188
17.676	0.006561	-0.21164	-0.2153	0.014648	-0.010071	0.009003	-0.37094	0.011749	-0.009155	-0.14358	0.001221	-0.002899	0.075378	0.07019	-0.005341	-0.090027	-0.010681	-0.1709	0.92834	0.033112	0.11734	-0.37231	-0.12787	-0.22827	0.060883	0.009766	-0.16373	0.007324	0.036469	0.012512	-0.000153	-0.005341
17.677	0.004578	-0.16235	-0.20493	-0.00351	-0.005493	0.02533	-0.36591	0.00824	-0.045471	-0.002899	-0.003357	0.11673	-0.008392	0.042419	-0.057068	-0.089874	0.011139	-0.11597	0.83664	-0.008545	-0.031738	-0.47211	-0.23361	-0.22354	0.083923	0.001221	-0.089264	0.008087	0.026398	0.003815	-0.00473	-0.002899
17.678	0.001984	-0.11032	-0.21561	-0.001831	-0.002441	0.021057	-0.36057	0.010681	-0.038147	0.20813	0.008698	-0.14511	-0.023193	0.17868	-0.050049	-0.047302	-0.051117	-0.044708	0.80963	-0.15854	-0.16281	-0.27603	-0.20798	-0.32257	-0.012207	0.001831	-0.057373	0.006866	0.045776	0.019836	-0.001984	-0.000153
17.679	-0.003815	-0.059814	-0.224	0.009613	0.02243	-0.026093	-0.36575	0.013885	-0.00885	0.24704	0.00885	-0.013123	0.039978	-0.08728	-0.0383	-0.097961	-0.071106	-0.039825	0.71045	-0.19134	-0.087891	-0.14191	-0.2095	-0.11978	-0.19226	0.007324	0.006256	0.007019	0.080566	0.030212	-0.007935	0
17.68	0.009003	-0.063171	-0.22522	-0.007172	0.029297	-0.006561	-0.38589	0.007172	-0.011139	-0.13001	0.00061	0.25772	0.099792	-0.26718	-0.024872	-0.12268	-0.022125	-0.10971	0.94727	-0.094299	0.4245	-0.19653	-0.17822	0.1503	-0.27649	0.010529	-0.032959	0.007172	0.12863	0.011902	-0.002289	-0.002594
17.681	-0.032959	-0.051575	-0.25803	0.008698	0.014954	0.015717	-0.39566	0.008087	0.006714	-0.29495	-0.010071	0.043945	0.12085	0.20645	-0.0177	-0.11734	0.002289	-0.14496	0.90302	0.040741	0.62378	-0.31082	-0.16281	0.069427	-0.083618	0.004578	-0.06485	0.008698	0.13397	0.000763	-0.00351	-0.007629
17.682	0.066986	-0.044403	-0.25787	0.025482	0.014191	0.036163	-0.37964	0.007324	0.001068	-0.10803	0.010681	0.066071	0.036926	0.19318	-0.008545	-0.013428	0.007935	-0.22553	0.60104	0.19073	0.58273	-0.23422	-0.14938	-0.13977	-0.010834	0.001984	-0.035095	0.006561	0.074158	-0.005188	-0.005493	-0.005341
17.683	0.02182	-0.049896	-0.26962	0.021515	0.003357	0.055389	-0.3775	0.016632	-0.006866	0.15442	0.01297	0.011749	-0.015106	-0.078583	0.02533	0.093536	-0.006714	-0.19257	0.6041	0.2478	0.51865	-0.067749	-0.23865	-0.16373	0.041809	-0.001221	0.015869	0.004883	0.059967	0.0177	-0.00473	0.000458
17.684	0.016632	-0.067139	-0.27695	0.011902	-0.006866	0.024567	-0.37888	0.007629	-0.010529	-0.10071	-0.005341	-0.24078	0.016785	-0.27802	0.032349	-0.042725	-0.009155	-0.056	0.69488	0.11475	0.24109	0.13641	-0.14358	-0.13657	0.036621	0.002594	-0.004578	0.002441	0.076752	0.042725	-0.001678	0.003815
17.685	0.005798	-0.075226	-0.2626	0.022278	-0.018005	-0.001984	-0.38757	0.00824	0.011444	-0.032959	0.007629	-0.13718	-0.000763	-0.14221	0.046844	-0.084229	0.018311	-0.084991	0.93887	-0.038452	0.069275	0.20996	-0.020905	-0.22705	-0.036011	0.00061	0.048523	0.006104	0.060883	0.012054	-0.001068	-0.005646
17.686	0.007019	-0.0383	-0.25803	0.003967	-0.021667	-0.009003	-0.3804	0.005951	0.004425	0.005951	0.001068	-0.078125	-0.00351	0.10376	0.04364	-0.033112	0.067444	-0.18143	1.0394	-0.11536	0.13901	0.24185	0.13962	-0.25162	-0.12726	-0.000458	0.052643	0.005493	0.02594	0.003204	-0.004425	-0.003967
17.687	0.008545	-0.004425	-0.24094	0.00351	-0.023804	-0.057678	-0.35706	0.008087	0.00473	0.12375	0.023499	0.20737	0.027771	0.83954	-0.041046	-0.11383	0.059814	-0.16373	1.1626	-0.12024	0.21027	0.30563	0.002441	-0.21316	-0.091858	-0.000153	-0.019379	0.005188	0.028534	0.015717	-0.002747	-0.009918
17.688	0.019989	-0.050049	-0.22705	0.007782	-0.001526	-0.10117	-0.34821	0.003967	0.006866	0.22644	0.012817	0.19348	0.084076	1.9751	-0.063782	-0.29694	-0.01297	-0.14145	0.84106	-0.005341	0.12833	0.40832	-0.15091	-0.09079	-0.060577	0.000458	-0.1619	0.006866	0.089569	-0.009766	-0.004578	-0.007935
17.689	0.021362	-0.058136	-0.21957	0.018311	-0.00061	-0.13382	-0.36667	0.00473	0.008545	0.32257	0.000763	-0.045929	-0.001373	0.6752	-0.046082	0.001221	-0.055542	-0.11322	0.4097	0.12573	0.23758	0.62164	-0.25146	0.022583	0.41336	0.002136	-0.15289	-0.000153	0.088348	-0.019073	-0.001526	-0.007935
17.69	0.005493	-0.054016	-0.22492	0.003967	0.02182	-0.16388	-0.34592	0.001678	0.003662	0.2771	0.007782	-0.095673	-0.01297	-0.64728	-0.013123	0.14648	-0.014801	-0.095367	0.37079	0.13733	0.36407	0.93903	-0.26901	0.15533	0.55389	-0.003815	-0.082397	0.005493	0.054474	-0.001831	-0.010834	-0.000153
17.691	0.038605	-0.060272	-0.21881	0.001831	0.036469	-0.11551	-0.37598	-0.001221	0.001678	-0.28061	0.007477	-0.025635	-0.080566	-0.95703	0.027313	-0.34775	-0.007019	0.041351	0.14557	0.053406	0.18036	0.97885	-0.11978	0.17639	0.3215	-0.002136	-0.024414	0.003815	0.049591	0.002289	-0.003052	0.001831
17.692	0.010529	-0.046692	-0.22736	0.00824	0.042114	0.079956	-0.3302	0.007019	-0.020905	-0.39932	-0.005951	0.23529	-0.14145	-1.0316	0.021667	0.23773	0.022736	0.10727	0.2124	0.022736	0.004883	0.92728	-0.061493	0.01236	-0.063477	-0.00412	0.041962	0.005493	0.060883	0.003357	-0.002289	0.000305
17.693	0.016327	-0.014496	-0.22064	-0.00885	0.038147	0.081482	-0.31311	0.00412	-0.027313	-0.39978	0.010834	0.15625	-0.1622	-0.76691	0.051575	0.065918	0.14526	0.15182	0.38773	0.001984	0.029755	0.89554	-0.12909	-0.083618	-0.24384	-0.004272	0.075989	0.004883	0.001831	-0.043182	-0.001068	0.001831
17.694	0.01297	-0.019684	-0.2092	-0.01358	0.016937	0.035706	-0.31448	0.00351	-0.02594	-0.21668	-0.003662	-0.25009	-0.002136	0.12878	0.065765	0.31464	0.17548	0.16754	0.35019	0.007477	0.19959	0.99564	-0.26947	-0.023804	0.016327	-0.005646	0.055084	0.003815	0.037231	-0.032806	-0.002136	-0.00061
17.695	0.022736	0.009918	-0.20096	0.019226	0.005493	-0.010529	-0.28824	0.006409	-0.031586	0.17029	-0.023804	0.022125	0.095062	0.60532	0.024414	0.056458	0.14648	0.097046	0.85724	-0.00824	0.34058	1.0323	-0.36087	0.069885	0.5191	-0.002441	0.006104	0.006866	0.1683	-0.035858	-0.00412	-0.013733
17.696	0.012817	0.046082	-0.19272	0.029449	0.005035	-0.025024	-0.26688	0.005493	-0.037689	0.44266	-0.019684	-0.097809	0.077057	0.014496	-0.033417	-1.1253	-0.013733	-0.16892	0.88104	-0.021973	0.12466	1.0374	-0.39139	0.17349	0.76843	0.002289	-0.071411	0.000305	0.42557	-0.079803	-0.000916	-0.019684
17.697	0.016632	0.03891	-0.17807	-0.001831	-0.002441	-0.018005	-0.23666	-0.000153	-0.047302	0.37247	0.004272	-0.063477	0.11917	-0.27176	-0.055542	0.10819	-0.13245	-0.32425	1.0213	0.007172	0.34714	1.1205	-0.32928	0.36514	0.54916	-0.005798	-0.098572	0.001831	0.30258	-0.078278	-0.002136	-0.036011
17.698	0.011749	-0.020294	-0.17334	0	-0.010071	0	-0.24475	0.007172	-0.056152	0.086975	-0.004578	-0.013885	0.015717	-0.18219	-0.050354	0.1651	-0.15243	-0.43259	0.73578	0.039673	0.98373	0.98434	-0.16586	0.54062	0.44388	0.006104	-0.035706	0.000916	-0.11719	-0.11078	-0.001526	-0.040588
17.699	0.009918	-0.04303	-0.16296	-0.013428	-0.003052	0.022278	-0.24445	0.012054	-0.061951	-0.18555	0.010681	-0.02182	-0.048523	0.28214	-0.031128	0.099945	-0.16724	-0.401	0.62912	0.026398	1.0681	0.9256	-0.19104	0.93018	0.40573	0.006409	-0.005188	0.001678	-0.64804	-0.078583	-0.004425	-0.040131
17.7	0.007782	-0.052643	-0.15564	-0.00946	0.007782	0.059967	-0.25116	0.00824	-0.066376	-0.5452	0.008392	-0.002289	0.062408	0.4628	-0.023193	0.16113	-0.10452	-0.32486	0.61829	0.07431	0.914	1.257	-0.29388	0.84381	0.26825	-0.000458	0.18692	-0.001526	-0.73151	-0.030518	-0.00473	-0.034485
17.701	0.007629	-0.010376	-0.15762	0.00473	0.008545	0.098114	-0.21881	0.011749	-0.05188	-0.3804	0.015411	-0.011902	0.13077	0.084991	-0.004578	0.12741	-0.022583	-0.27405	0.35584	0.1358	0.6926	1.1665	-0.34393	0.70084	0.1831	0.005798	0.30945	-0.001678	0.50079	-0.053558	-0.003662	-0.027161
